# xmcd
#
# Track frame offsets:
#  150
#  18978
#  33947
#  51467
#  66151
#  80647
#  95784
#  113440
#  130986
#  147522
#  174686
#  191182
#  207172
#  220824
#
# Disc length: 3144 seconds
#
# Revision: 0
# Processed by: cddbd v1.5.2PL0 Copyright (c) Steve Scherf et al.
# Submitted via: AltoMP3_Maker 3.0
#
DISCID=d40c460e
DTITLE=The Stone Cold Roosters - Anywhere West
DYEAR=1900
DGENRE=
TTITLE0=It's All Coming Back to Me Now
TTITLE1=No Good Reason
TTITLE2=One Bad Habit
TTITLE3=Flying
TTITLE4=Stranger in My Shoes
TTITLE5=Having a Ball
TTITLE6=Anywhere West
TTITLE7=Snow on April
TTITLE8=I Put My Foot in It
TTITLE9=Sugar Mountain
TTITLE10=I Don't Like Me Sober
TTITLE11=Whiskey Blues
TTITLE12=Roadkill
TTITLE13=Scattered
EXTD=
EXTT0=
EXTT1=
EXTT2=
EXTT3=
EXTT4=
EXTT5=
EXTT6=
EXTT7=
EXTT8=
EXTT9=
EXTT10=
EXTT11=
EXTT12=
EXTT13=
PLAYORDER=
